# xmcd
#
# Track frame offsets: 
#        150
#        12889
#        31917
#        52736
#        62867
#        82428
#        95211
#        112333
#        121790
#        136036
#        163445
#        185837
#        205265
#        221871
#        242172
#        251079
#        266162
#        282304
#        295177
#        312872
#
# Disc length: 4435 seconds
#
# Revision: 2
# Processed by: cddbd v1.5.2PL0 Copyright (c) Steve Scherf et al.
# Submitted via: ExactAudioCopyFreeDBPlugin 1.0
#
DISCID=41115114
DTITLE=Wim Sonneveld - Zijn 100 Beste Liedjes van A tot Z - CD 3, 2010
DYEAR=2010
DGENRE=Hollands
TTITLE0=Het lied van zwarte Leentje
TTITLE1=Had je niet die mooie blauwe ogen
TTITLE2=Het hondje van Dirkie
TTITLE3=Het Spaanse graan (The rain in Spain)
TTITLE4=Hamburg an der Elbe (Seemanns-Chor)
TTITLE5=Huwelijksreis (Le voyage de noce)
TTITLE6=Huis - tuin en keukenliedje
TTITLE7=Happy Landing
TTITLE8=Ik heb zo vaak aan Amsterdam gedacht
TTITLE9=Ik ben een van die meneren
TTITLE10=Ik ben een doodgewone man
TTITLE11=Ik voel dat ik haar mis (I've grown accustomed to his face)
TTITLE12=In een rijtuigje
TTITLE13=Ik zou met jou
TTITLE14=Jij hebt iets van een Renoir
TTITLE15=Josefien
TTITLE16=Kijk, wij zijn gelijk
TTITLE17=Kobie
TTITLE18=Liedje met bloemen
TTITLE19=Lieveling
EXTD=
EXTT0=
EXTT1=
EXTT2=
EXTT3=
EXTT4=
EXTT5=
EXTT6=
EXTT7=
EXTT8=
EXTT9=
EXTT10=
EXTT11=
EXTT12=
EXTT13=
EXTT14=
EXTT15=
EXTT16=
EXTT17=
EXTT18=
EXTT19=
PLAYORDER=
